<svg width="38" height="52" viewBox="0 0 38 52" fill="none" xmlns="http://www.w3.org/2000/svg">
<path d="M6.21634 42.3344C5.29427 42.3344 4.50393 42.0101 3.84531 41.3616C3.1867 40.7132 2.86245 39.9228 2.87259 38.9906C2.86245 38.0787 3.1867 37.2985 3.84531 36.65C4.50393 36.0015 5.29427 35.6773 6.21634 35.6773C7.108 35.6773 7.88314 36.0015 8.54176 36.65C9.21051 37.2985 9.54995 38.0787 9.56009 38.9906C9.54995 39.6087 9.38783 40.1711 9.07372 40.6777C8.76974 41.1843 8.36444 41.5896 7.85781 41.8936C7.36132 42.1875 6.81416 42.3344 6.21634 42.3344ZM18.63 42.3344C17.7079 42.3344 16.9176 42.0101 16.259 41.3616C15.6004 40.7132 15.2761 39.9228 15.2863 38.9906C15.2761 38.0787 15.6004 37.2985 16.259 36.65C16.9176 36.0015 17.7079 35.6773 18.63 35.6773C19.5217 35.6773 20.2968 36.0015 20.9554 36.65C21.6242 37.2985 21.9636 38.0787 21.9738 38.9906C21.9636 39.6087 21.8015 40.1711 21.4874 40.6777C21.1834 41.1843 20.7781 41.5896 20.2715 41.8936C19.775 42.1875 19.2278 42.3344 18.63 42.3344ZM31.0437 42.3344C30.1216 42.3344 29.3313 42.0101 28.6727 41.3616C28.014 40.7132 27.6898 39.9228 27.6999 38.9906C27.6898 38.0787 28.014 37.2985 28.6727 36.65C29.3313 36.0015 30.1216 35.6773 31.0437 35.6773C31.9353 35.6773 32.7105 36.0015 33.3691 36.65C34.0379 37.2985 34.3773 38.0787 34.3874 38.9906C34.3773 39.6087 34.2152 40.1711 33.9011 40.6777C33.5971 41.1843 33.1918 41.5896 32.6852 41.8936C32.1887 42.1875 31.6415 42.3344 31.0437 42.3344Z" fill="black"/>
</svg>
