<svg width="28" height="28" viewBox="0 0 28 28" fill="none" xmlns="http://www.w3.org/2000/svg">
<path fill-rule="evenodd" clip-rule="evenodd" d="M11.3745 22.7491C17.6565 22.7491 22.7491 17.6565 22.7491 11.3745C22.7491 5.09256 17.6565 0 11.3745 0C5.09256 0 0 5.09256 0 11.3745C0 17.6565 5.09256 22.7491 11.3745 22.7491ZM11.0401 18.0656C14.9202 18.0656 18.0656 14.9202 18.0656 11.0401C18.0656 7.16005 14.9202 4.01465 11.0401 4.01465C7.16005 4.01465 4.01465 7.16005 4.01465 11.0401C4.01465 14.9202 7.16005 18.0656 11.0401 18.0656Z" fill="black"/>
<rect x="18.978" y="14.7197" width="11.8681" height="6.02182" rx="2.00727" transform="rotate(45 18.978 14.7197)" fill="black"/>
</svg>
